<svg xmlns="http://www.w3.org/2000/svg" xmlns:xlink="http://www.w3.org/1999/xlink" width="31.055" height="25.622" viewBox="0 0 31.055 25.622">
  <defs>
    <clipPath id="clip-path">
      <rect id="Retângulo_91" data-name="Retângulo 91" width="31.055" height="25.622" fill="none"/>
    </clipPath>
  </defs>
  <g id="Grupo_107" data-name="Grupo 107" clip-path="url(#clip-path)">
    <path id="Caminho_75" data-name="Caminho 75" d="M.879,13.69A.879.879,0,0,1,0,12.811,12.811,12.811,0,0,1,22.039,3.925a.879.879,0,0,1-1.267,1.22A11.053,11.053,0,0,0,1.759,12.811a.879.879,0,0,1-.879.879" fill="#0e9197"/>
    <path id="Caminho_76" data-name="Caminho 76" d="M12.811,176.528A12.826,12.826,0,0,1,0,163.717a.879.879,0,1,1,1.759,0A11.054,11.054,0,0,0,23.5,166.535a.879.879,0,1,1,1.7.447,12.815,12.815,0,0,1-12.391,9.546" transform="translate(0 -150.906)" fill="#0e9197"/>
    <path id="Caminho_77" data-name="Caminho 77" d="M53.678,69.257a1.22,1.22,0,0,1-.915-.412l-9.134-10.4a.653.653,0,0,1,.335-1.068.645.645,0,0,1,.154-.019.656.656,0,0,1,.455.186l9.109,8.737,12.2-12.007-1.475-.1a.647.647,0,0,1-.081-1.28l5.317-1.014a1.232,1.232,0,0,1,1.4,1.618l-1.678,4.737a.647.647,0,0,1-1.255-.259l.07-1.038c-.336.3-.742.687-1.218,1.136-1.136,1.071-2.693,2.537-4.591,4.154-4.032,3.434-6.99,5.961-7.02,5.987l-.068.058h-.009c-.841.716-.846.72-.86.73a1.2,1.2,0,0,1-.738.25" transform="translate(-40.28 -48.062)" fill="#dc3d1e"/>
    <path id="Caminho_78" data-name="Caminho 78" d="M67.107,49.3a1.012,1.012,0,0,1,.953,1.35l-1.677,4.736a.427.427,0,0,1-.829-.171l.106-1.571c-1.063.9-3.186,3.068-6.207,5.641-4.079,3.474-7.02,5.987-7.02,5.987h-.009c-.9.77-.91.775-.919.781a.987.987,0,0,1-.6.2,1,1,0,0,1-.75-.337l-9.133-10.4a.431.431,0,0,1-.093-.407.438.438,0,0,1,.316-.3.425.425,0,0,1,.1-.012.431.431,0,0,1,.3.123l9.265,8.887,12.7-12.5-1.964-.128a.427.427,0,0,1-.052-.845l5.315-1.013a1.016,1.016,0,0,1,.2-.02m0-.44a1.46,1.46,0,0,0-.284.028L61.509,49.9a.867.867,0,0,0,.1,1.715h0l.986.064L50.9,63.2l-8.955-8.59a.869.869,0,0,0-.814-.222.873.873,0,0,0-.446,1.428l9.132,10.4A1.441,1.441,0,0,0,50.9,66.7a1.418,1.418,0,0,0,.872-.3c.018-.014.022-.017.8-.679h.01l.136-.116c.029-.025,2.987-2.552,7.019-5.986,1.9-1.62,3.461-3.089,4.6-4.161.3-.281.569-.536.811-.762l-.033.489a.867.867,0,0,0,1.682.347L68.474,50.8a1.452,1.452,0,0,0-1.367-1.936" transform="translate(-37.502 -45.281)" fill="#dc3d1e"/>
  </g>
</svg>
